<?xml version="1.0" encoding="utf-8"?>
<!-- Generator: Adobe Illustrator 16.0.4, SVG Export Plug-In . SVG Version: 6.00 Build 0)  -->
<!DOCTYPE svg PUBLIC "-//W3C//DTD SVG 1.1//EN" "http://www.w3.org/Graphics/SVG/1.1/DTD/svg11.dtd">
<svg version="1.1" id="Layer_1" xmlns="http://www.w3.org/2000/svg" xmlns:xlink="http://www.w3.org/1999/xlink" x="0px" y="0px"
	 width="225px" height="211.946px" viewBox="-22.636 1.054 225 211.946" enable-background="new -22.636 1.054 225 211.946"
	 xml:space="preserve">
<g>
	<linearGradient id="SVGID_1_" gradientUnits="userSpaceOnUse" x1="92.8652" y1="80.3003" x2="59.2508" y2="115.3493">
		<stop  offset="0" style="stop-color:#74BF44"/>
		<stop  offset="0.0459" style="stop-color:#62BB45"/>
		<stop  offset="0.1406" style="stop-color:#44B347"/>
		<stop  offset="0.2455" style="stop-color:#2BAD48"/>
		<stop  offset="0.3622" style="stop-color:#18A84A"/>
		<stop  offset="0.4976" style="stop-color:#0AA44A"/>
		<stop  offset="0.6685" style="stop-color:#02A24B"/>
		<stop  offset="0.9905" style="stop-color:#00A14B"/>
	</linearGradient>
	<path fill="url(#SVGID_1_)" d="M114.03,45.552C103.168,32.447,84.95,0.087,84.455,1.076c-0.701,1.402-0.754,3.119-1.175,4.672
		c-3.034,11.349-9.485,20.885-15.991,30.438c-7.458,10.957-15.444,21.635-21.852,33.188c-8.735,15.731-11.134,32.531-4.839,50.113
		c8.36,23.301,32.005,36.104,55.662,31.878c24.535-4.386,40.826-25.593,41.171-53.812C137.432,88.765,132.689,68.066,114.03,45.552z
		 M115.61,110.819c0-16.338-13.266-29.63-29.663-29.63c-16.368,0-29.638,13.292-29.638,29.63c0,13.178,8.576,24.333,20.434,28.209
		v-24.19H64.853c0,0-1.454-2.624-1.454-4.284c0-1.657,1.454-3.895,1.454-3.895H84.92v3.895v4.284v25.638
		c0.012,0,0.03,0.002,0.03,0.002l-0.03,0.004v4.374c-20.779-0.723-37.332-17.795-37.332-38.762
		c0-21.423,17.363-38.784,38.782-38.784c21.423,0,38.786,17.361,38.786,38.784c0,20.456-15.772,37.217-35.852,38.69v-4.471v-0.004
		V90.729c0,0,2.63,0,4.651,0.605c1.763,0.526,3.525,2.199,3.525,2.199v44.634C108.137,133.662,115.61,123.119,115.61,110.819z"/>
</g>
<g enable-background="new    ">
	<path fill="#5B5C5F" d="M198.289,165.878v0.446h-1.27v3.324h-0.517v-3.324h-1.271v-0.446H198.289z"/>
	<path fill="#5B5C5F" d="M198.747,165.878h0.73l1.085,3.186l1.075-3.186h0.727v3.771h-0.485v-2.229c0-0.077,0.001-0.205,0.004-0.384
		c0.005-0.176,0.006-0.367,0.006-0.571l-1.077,3.184h-0.505l-1.09-3.184v0.114c0,0.094,0.006,0.235,0.01,0.425
		c0.005,0.188,0.01,0.327,0.01,0.416v2.228h-0.488L198.747,165.878L198.747,165.878z"/>
</g>
<g>
	<g>
		<path fill="#6D6E70" d="M-22.465,183.299c0-8.277,6.137-14.05,14.131-14.05c3.957,0,7.308,1.13,9.569,3.552l-1.978,1.98
			c-1.776-1.858-4.2-2.908-7.591-2.908c-6.459,0-11.103,4.885-11.103,11.426c0,6.542,4.684,11.428,11.346,11.428
			c3.754,0,6.419-1.132,8.115-2.505v-5.651h-8.155v-2.584h10.9v9.568c-2.018,1.978-5.692,3.795-10.86,3.795
			C-16.287,197.35-22.465,191.576-22.465,183.299z"/>
		<path fill="#6D6E70" d="M26.906,197.026h-3.431l-5.289-7.509c-0.929,0.16-1.938,0.241-2.908,0.241h-3.27v7.268H9.101v-27.454
			h6.177c7.51,0,11.387,4.198,11.387,10.133c0,4.119-1.939,7.35-5.734,8.884L26.906,197.026z M15.116,187.215
			c6.218,0,8.521-3.189,8.521-7.51s-2.343-7.549-8.521-7.549h-3.108v15.059H15.116z"/>
		<path fill="#6D6E70" d="M33.16,169.572h16.715v2.584H36.067v12.88H48.38v2.542H36.067v6.864H50.44v2.584H33.16V169.572z"/>
		<path fill="#6D6E70" d="M56.571,169.572h16.714v2.584H59.478v12.88h12.314v2.542H59.478v6.864h14.374v2.584h-17.28V169.572z"/>
		<path fill="#6D6E70" d="M84.384,177.929c-0.767-0.929-1.897-2.544-1.897-2.544s0.242,1.939,0.242,3.11v18.531h-2.746v-27.737
			h0.484l16.395,19.379c0.766,0.93,1.897,2.544,1.897,2.544s-0.203-1.938-0.203-3.108v-18.531h2.705v27.737h-0.483L84.384,177.929z"
			/>
		<path fill="#6D6E70" d="M107.876,169.572h8.438c8.438,0,14.456,5.611,14.456,13.727s-5.975,13.728-14.456,13.728h-8.438V169.572z
			 M116.031,192.061c6.099,0,8.883-3.634,8.883-8.762c0-5.127-2.784-8.761-8.883-8.761h-2.501v17.522H116.031z"/>
		<path fill="#6D6E70" d="M134.598,183.299c0-8.115,6.3-14.091,14.215-14.091c7.91,0,14.21,5.976,14.21,14.091
			s-6.3,14.091-14.21,14.091C140.897,197.39,134.598,191.414,134.598,183.299z M157.209,183.299c0-5.127-3.393-9.044-8.396-9.044
			c-5.009,0-8.401,3.917-8.401,9.044c0,5.128,3.393,9.043,8.401,9.043C153.816,192.342,157.209,188.427,157.209,183.299z"/>
		<path fill="#6D6E70" d="M172.465,174.538h-7.833v-4.966h21.317v4.966h-7.834v22.488h-5.65V174.538z"/>
	</g>
	<path fill-rule="evenodd" clip-rule="evenodd" fill="#74BF44" d="M151.454,186.043c-1.421,1.413-3.714,1.411-5.123,0.006
		c-1.416-1.42-1.419-3.712-0.003-5.125c1.412-1.415,3.705-1.413,5.12,0.005C152.862,182.337,152.862,184.629,151.454,186.043z"/>
	<g>
		<path fill="#74BF44" d="M190.391,170.205h1.768v4.147h3.884v0.916h-5.651V170.205z"/>
		<path fill="#74BF44" d="M192.885,177.611h0.151l3.919,5.108h-1.853l-0.402-0.573h-3.481l-0.404,0.573h-1.701L192.885,177.611z
			 M194.069,181.274l-0.619-0.878c-0.251-0.357-0.516-0.908-0.516-0.908s-0.253,0.551-0.507,0.908l-0.616,0.878H194.069z"/>
		<path fill="#74BF44" d="M190.084,185.106h3.318c1.599,0,2.496,0.595,2.496,1.31c0,0.47-0.468,0.789-1.213,0.931
			c1.174,0.164,1.743,0.627,1.743,1.26c0,0.901-1.084,1.563-2.878,1.563h-3.467V185.106z M193.211,186.975
			c0.57,0,0.948-0.186,0.948-0.477c0-0.29-0.316-0.477-0.857-0.477h-1.451v0.953H193.211z M193.478,189.254
			c0.718,0,1.173-0.284,1.173-0.701c0-0.408-0.468-0.692-1.274-0.692h-1.525v1.394H193.478z"/>
		<path fill="#74BF44" d="M189.801,196.623l1.437-0.492c0.377,0.365,0.869,0.634,1.742,0.634c0.73,0,1.197-0.217,1.197-0.515
			c0-0.356-0.479-0.483-1.286-0.692l-0.442-0.11c-1.274-0.322-2.119-0.724-2.119-1.572c0-0.782,1.009-1.377,2.585-1.377
			c1.123,0,1.931,0.23,2.511,0.834l-1.373,0.521c-0.304-0.32-0.632-0.446-1.138-0.446c-0.516,0-0.844,0.194-0.844,0.446
			c0,0.312,0.328,0.439,1.084,0.633l0.441,0.111c1.501,0.381,2.349,0.768,2.349,1.639c0,0.938-1.25,1.452-2.929,1.452
			C191.377,197.688,190.317,197.227,189.801,196.623z"/>
	</g>
</g>
<g>
	<g>
		<path fill="#00A14B" d="M131.495,83.226c-3.807-13.5-11.655-25.147-19.954-35.877c-4.813-6.211-12.415-17.09-18.498-28.012
			c-2.254-4.046-5.182-8.099-7.234-11.229c-3.342,11.237-9.762,20.674-15.976,29.808c-1.862,2.738-3.785,5.49-5.642,8.156
			c-5.563,7.987-11.325,16.249-16.067,24.793c-8.742,15.752-10.297,31.764-4.63,47.586c6.675,18.612,23.857,30.641,43.769,30.643
			c2.825,0,5.668-0.256,8.456-0.75c23.11-4.137,38.266-24.034,38.636-50.713C134.123,93.92,133.188,89.207,131.495,83.226z
			 M89.305,144.784v-4.471v-0.004V90.729c0,0,2.63,0,4.651,0.605c1.763,0.526,3.525,2.199,3.525,2.199v44.634
			c10.655-4.505,18.129-15.048,18.129-27.348c0-16.338-13.266-29.63-29.663-29.63c-16.368,0-29.638,13.292-29.638,29.63
			c0,13.178,8.576,24.333,20.434,28.209v-24.19H64.853c0,0-1.454-2.624-1.454-4.284c0-1.657,1.454-3.895,1.454-3.895H84.92v3.895
			v4.284v25.638c0.012,0,0.03,0.002,0.03,0.002l-0.03,0.004v4.374c-20.779-0.723-37.332-17.795-37.332-38.762
			c0-21.423,17.363-38.784,38.782-38.784c21.423,0,38.786,17.361,38.786,38.784C125.156,126.55,109.384,143.311,89.305,144.784z"/>
	</g>
	<g>
		<linearGradient id="SVGID_2_" gradientUnits="userSpaceOnUse" x1="92.8652" y1="80.3003" x2="59.2508" y2="115.3493">
			<stop  offset="0" style="stop-color:#74BF44"/>
			<stop  offset="0.0459" style="stop-color:#62BB45"/>
			<stop  offset="0.1406" style="stop-color:#44B347"/>
			<stop  offset="0.2455" style="stop-color:#2BAD48"/>
			<stop  offset="0.3622" style="stop-color:#18A84A"/>
			<stop  offset="0.4976" style="stop-color:#0AA44A"/>
			<stop  offset="0.6685" style="stop-color:#02A24B"/>
			<stop  offset="0.9905" style="stop-color:#00A14B"/>
		</linearGradient>
		<path fill="url(#SVGID_2_)" d="M114.03,45.552C103.168,32.447,84.95,0.087,84.455,1.076c-0.701,1.402-0.754,3.119-1.175,4.672
			c-3.034,11.349-9.485,20.885-15.991,30.438c-7.458,10.957-15.444,21.635-21.852,33.188c-8.735,15.731-11.134,32.531-4.839,50.113
			c8.36,23.301,32.005,36.104,55.662,31.878c24.535-4.386,40.826-25.593,41.171-53.812C137.432,88.765,132.689,68.066,114.03,45.552
			z M95.719,148.342c-2.788,0.494-5.631,0.75-8.456,0.75c-19.911-0.002-37.094-12.03-43.769-30.643
			c-5.667-15.822-4.112-31.833,4.63-47.586c4.742-8.544,10.504-16.806,16.067-24.793c1.856-2.666,3.78-5.418,5.642-8.156
			c6.214-9.134,12.634-18.571,15.976-29.808c2.053,3.131,4.98,7.183,7.234,11.229c6.083,10.922,13.685,21.801,18.498,28.012
			c8.299,10.73,16.147,22.377,19.954,35.877c1.692,5.981,2.628,10.694,2.859,14.403C133.984,124.308,118.829,144.205,95.719,148.342
			z"/>
	</g>
</g>
</svg>
